<svg xmlns="http://www.w3.org/2000/svg" viewBox="0 0 2059.76 71.55"><defs><style>.a{fill:none;stroke:#ababab;stroke-miterlimit:10;}</style></defs><path class="a" d="M162.28,39.58A97.17,97.17,0,0,1,194,25.85c6.55-1.48,17-3.83,30.38-1.85,12.21,1.8,18.84,6,30.91,3,5.14-1.3,7-2.84,11.62-4.83,15.39-6.65,21.48-1.12,51.25-.74,10.24.13,20.36-.38,34.6-1.11,8.4-.43,10.9-.7,17.17-.74,8.68-.07,11,.4,15.59-.37,7.58-1.27,11.92-4.25,16.9-6.68,9.65-4.69,21-5,49.11-5.66,21.72-.53,29.67,1,50.16,1.73,20.1.75,54.67-1.57,123-6.24C649.61.62,658.53-.11,674,0c23.19.17,25,2,53,2.07,15.82.05,21-.51,43.59-.26,20.3.22,18.59.69,23.75.26,8.72-.74,22.08-2.82,32.3-.45.58.13,2,.46,4,.88a116.68,116.68,0,0,0,14.37,2c2.33.18,4.35.24,8.4.36,14.85.44,16.48-.16,23.7.36,7.95.57,6.28,1.33,17.58,2.49,8.62.88,10.76.56,17.58,1.47,7.53,1,10.39,2.14,15.28,3.15,13.13,2.72,20.12.31,44.33.71,11.79.2,8.27.73,26.75,1.42,13.12.49,15.81.26,42,.72,23.36.4,27,.69,30.57,1.06,6.27.66,8.14,1.14,24.46,3.2,9.78,1.24,9.51,1.12,17.58,2.14,22.15,2.8,22,3.4,29.81,3.91,13.77.91,13.55-1,28.28-.35,15,.67,16,2.69,31.34,3.55,16.09.91,15.61-1.29,29.8-.35,6.13.4,16.66,2.41,37.45,6.4,13.45,2.58,12.2,2.44,18.35,3.56,3.29.59,15.6,2.8,36.69,5.69,18.14,2.48,27.21,3.73,33.62,4.27,10,.84,20-.28,32.11,5a57.13,57.13,0,0,1,6.87,3.56"/><path class="a" d="M1107.33,20.81a66.59,66.59,0,0,1,8.11-3,51,51,0,0,1,6.59-1.65c6.31-1.08,9.77-.18,13.81-.86a33.35,33.35,0,0,1,4.41-.38c.66,0,1.31,0,1.31,0,.87.05,3,.21,10.66,2.42,4,1.18,3.64,1.2,5,1.45a34,34,0,0,0,9.74.37c1.81-.18,1.73-.3,6.65-1.21a97.78,97.78,0,0,1,10.66-1.7,80,80,0,0,1,9.74.25c4.67.26,4.91.47,7.58.48,2.93,0,3.89-.23,9.12-.73,1.8-.17,6.48-.6,11.75-.84,1.08-.05,4.13-.12,10.2-.25,7.85-.16,8.74-.16,10.82-.36,5.21-.5,4.83-1,8.35-1.09a50.79,50.79,0,0,1,10.82,1.09,55.47,55.47,0,0,1,5.88,1.33,46.64,46.64,0,0,1,9.32,3.8"/><path class="a" d="M1205.74,21.56a47.67,47.67,0,0,0,19.48,1.09c4-.67,5.71-1.6,10.82-1.94,4-.26,5.19.17,12.83.37,1,0,5.67.13,11,0s6.41-.41,15-1c12.61-.83,12.39-.38,16.39-1.09,6.64-1.18,7.34-2.43,13.45-3.51A59.72,59.72,0,0,1,1320.6,15c9.54.65,11.43-.4,36.8-1.46,28.6-1.19,42.9-1.79,61.68-1,19.44.86,29.42,2.56,43-.6,2.82-.66,8.8-2.23,17.93-3.87,2.35-.43,11.33-2,19.79-2.79,12.11-1.08,18.73,0,31.53.61,11.87.6,24.09.24,48.54-.49,15.52-.46,18.85-.86,33.86-1.09s22.46-.33,27.21.13c14,1.34,21.66,4.18,36.33,4.11,1.73,0,4.44-.06,8.81,0,8.1.12,14.65.53,18.86.85"/><path class="a" d="M761.56,25.39c3.39,1.43,2.76,2.95,10.78,8.14,3.66,2.37,7.73,3.92,7.39,4.51-.18.31-1.47,0-3.83,0a32.55,32.55,0,0,0-6.43.64c-1.29.21-1.31.17-11,.93-15.19,1.2-16.77,1.47-18.48.3-2.85-1.94-1.31-4.19-4.23-6-3.57-2.24-8.47-.53-16.94.3-7.3.72-5.71-.35-18.1,0-15.2.43-18.73,2.08-26.18,0-1.72-.48-10-2.94-10-6.32,0-1.67,2-2.87,2.31-3,3.95-2.28,10.14-.19,14.62.91,9.44,2.29,8.62-.48,31.19.6,18.57.89,17.07,2.67,25.41,1.81C750.4,26.83,755.28,22.76,761.56,25.39Z"/><path class="a" d="M628.72,30c-.86,2.48,7.14,7.81,15.57,8.22,4.53.22,4.77-1.2,11.89-1.65,7.3-.45,12.72.69,12.94,0s-5.06-1.14-8-4.65c-1.79-2.12-1-3.22-2.62-4.38-2.13-1.5-4.48-.37-11.54-.14s-10-.7-15.22,1C629.08,29.23,628.8,29.81,628.72,30Z"/><path class="a" d="M611.68,28.47c2.79.22,9.71.76,15.19,5.67,1.58,1.41,4.36,3.9,3.72,5.74-.47,1.36-2.53,1.55-12.09,2.79-8.34,1.08-8.41,1.14-10.08,1.24-5.5.31-8.31-.2-12.87-.47a134.41,134.41,0,0,0-24.8,1.24c-8.26,1.06-11.64,2.2-14.26-.15-2.4-2.15-3.31-6.46-1.71-8.53,1.76-2.27,5.5-.52,15.19-1.24,1.58-.11.63-.1,8.22-1.08,15.39-2,14.72-1.48,17.52-2.33,3.9-1.18,6.18-2.5,11-2.88A32.16,32.16,0,0,1,611.68,28.47Z"/><path class="a" d="M771.74,25.52c-1.19,1.69,5,6.23,8.72,8.49a27.77,27.77,0,0,0,5.35,2.75c5.1,1.84,9.21,1.24,19.43.66,6.57-.37,9.85-.56,14.07-.55,6,0,10.44.41,18.16,1.1,10.19.92,12.42,1.52,18.44,1.33,2.92-.1,5.27-.36,9.85-.88,10.38-1.19,12.57-1.93,18.58-2.65,18.12-2.15,20.34,2,32.23-.22,1.82-.33,6.32-1.27,9.71.55,1.86,1,2.36,2.27,3.1,3.09,3.4,3.77,10.93-.68,24.91,0a86.52,86.52,0,0,0,9.71.22c3.51-.16,5.27-.5,8.45-.88,12.5-1.53,14.6.11,23.78-1.77,2.71-.55,3.83-1,7-1.43,6.41-.94,10.67-.59,10.7-.88s-8.79-1.26-16.33-2c-19.24-1.85-16-1.68-21.25-2.1-6.23-.49-16.06-1.25-28.86-1.42-11-.15-16.51-.22-18.86.33-4.07.95-8.51,2.7-12.52,1.09-1.81-.72-2.12-1.55-4.79-2.41-3.26-1.06-4.06-.22-7-1.33-1.71-.63-1.6-1-5.35-2.75a30.29,30.29,0,0,0-3.23-1.43,17.19,17.19,0,0,0-8.17-.33c-6,.93-12.19-.07-18.29,0-8.94.1-9.49-.32-21.82-.55-20.21-.39-30.32-.59-40.54,1a130.8,130.8,0,0,1-15.9,2c-11.48.57-12.67.55-12.67.55C774,25,772.27,24.76,771.74,25.52Z"/><path class="a" d="M835.21,18.11c.07,1.47,31.48,1,45.49,1.4,3.22.1,6.45-.26,9.67-.28,2.58,0,3.85,0,4.12-.49.61-1.13-4.17-3.84-6.45-5a17.07,17.07,0,0,0-2.68-1.19c-4.07-1.23-8.1.34-11.82,1.4a66.92,66.92,0,0,1-14.33,2.32c-7.27.51-9.82-.59-17.82.49C838.81,17.12,835.18,17.61,835.21,18.11Z"/><path class="a" d="M588.93,70.65l55.63-5.15c126-11.65,143-12.38,171.41-12.26,40,.17,47.76,2.74,119.7,3.5,30,.32,38.1,0,62,.78,44.32,1.49,59.46,4.14,99.16,6.42,33.59,1.93,31.45.54,98.55,2.14,66.36,1.59,99.54,2.39,128.17,4.09,0,0,58.36,3.47,118.5-4.28,6.86-.89,20.76-2.83,21.16-6.23.54-4.63-25.76-9.78-42.32-13-5.88-1.16-10.83-2.12-16.57-2.9,0,0-3.15-.42-6.52-.76-14.31-1.45-45.06-1.12-46.37-1.1l-44.3-.49"/><path class="a" d="M1326,44.09c15.21.83,28,1.22,37.35,1.42,16.55.35,22.68.11,33.61,1.37,13,1.5,35.35,5.51,35.09,9.47-.14,2.26-7,3.67-15.72,5.26-27.84,5.09-51.13,3.75-65,3.11-30.19-1.39-14.55.59-78.29-1.17-32-.88-38.28-1.44-58.65-1.55-27.09-.15-46.35.69-54.41,1-56.57,1.92-83.15-5.76-170.8-10.12-43.94-2.19-77.47-2.26-118.2-2.34-30.34-.06-67.21-.13-114.26,1.75-27.84,1.12-27.63,1.66-153,10.71-40.92,3-60.31,4.3-84.53,6.09-10.89.81-21.78,1.64-21.78,1.64l-5.84.44"/><path class="a" d="M1606.73,28.17a170.13,170.13,0,0,0,20.86-4c14.65-3.77,17.66-6.61,28.88-8.82,11.76-2.32,13.84-.25,28.07-1.61,16.55-1.58,19.23-5.23,31.69-6.81,15-1.92,23.86,1.26,37.7,3.61,22.82,3.87,28.94.38,62.57.4,17.16,0,38.45,2.14,81,6.41,37.65,3.78,55.79,6.57,83.82,2.81,2.49-.33,12.93-4.22,26.88-5.21,1-.08,5.24-.36,11-.31a155.32,155.32,0,0,1,22.45,1.92,157.13,157.13,0,0,1,17.67,3.82"/><path class="a" d="M1505.74,44.16c-.22,1.45,9.67,2.71,23.26,8.44,12.41,5.25,12.79,7.84,21,9.79,7.49,1.79,10.14.33,23.38-.15,20.47-.75,32.6,2.05,32.85.65.21-1.22-9.27-2-24.49-8.55-10.46-4.47-14.92-7.91-24.45-8.85-4.57-.45-3.13.28-11.37-.05-12.59-.5-18.3-2.46-31.17-2.35C1510.52,43.12,1505.88,43.18,1505.74,44.16Z"/><path class="a" d="M1570.68,44c-.28,1.59,9.15,4,25.15,10.42,5.25,2.11,9.49,4,12.25,5.23,3.33,1.78,4.53,2.53,5.37,3,5.72,3,10.57-.44,21.77-1.84,8.62-1.07,11.29.24,26-1.45,4.44-.51,7.1-1,7.19-1.85.14-1.45-6.64-2.36-17.87-6.67-8.79-3.36-17.1-7.57-18.13-8.09-6.91-3.52-7.34-4.28-10.47-5.08s-5.69-.84-17.46,1.06c-14.92,2.42-15.64,3.31-23.81,4.08C1574,43.38,1570.84,43.06,1570.68,44Z"/><path class="a" d="M1534,25.18a124.8,124.8,0,0,1,31.5-9.93c13.14-2.29,21.15-1.46,36.32-2,20.68-.72,24.13-3.53,43.7-4.54,11.52-.6,20.88-.42,26.7-.2"/><path class="a" d="M312.61,21.27a27.65,27.65,0,0,0-10.79-8.94c-7-3.15-13.34-2-20.86-1.26,0,0-3.74.39-29.62.84-19,.33-21.17-2.78-40.88-3.76-18-.88-18.32,1.6-40.89,2.09-32.74.71-32.25-4.51-53.82-2.5-23.38,2.18-27,8.59-51.31,10.84a151.19,151.19,0,0,1-40-1.66"/><path class="a" d="M0,35.27c25.81,9.12,46.52,10.46,60.62,10,19.12-.6,28.94-4.59,47.29-2.5a108.56,108.56,0,0,1,44.65,15.85"/><path class="a" d="M1701.23,46.31c.59-.87,3.07-.06,3.41,0,1.42.48,2.13,1.15,4.25,2.9,2.57,2.13,3.87,3.19,4.58,3.48,2.65,1,4.73.2,5,1,.23.62-.66,1.89-1.84,2.28-2.37.77-3.57-2.75-8.75-4.51-2.43-.83-4.07-.7-5.56-2.36C1701.6,48.36,1700.78,47,1701.23,46.31Z"/><path class="a" d="M1668.4,38.14a6.64,6.64,0,0,0-.75,6.09c1.62,4.69,7.19,4.42,16.55,9,11,5.32,12.92,10.33,19.75,9.8,3.91-.3,8.07-2.31,8.09-4.2,0-2.52-7.37-2.2-15.55-7.71-8.39-5.66-7.62-10.75-15.29-13.61C1677.41,36.05,1671,35,1668.4,38.14Z"/></svg>