<svg xmlns="http://www.w3.org/2000/svg" viewBox="0 0 2059.76 71.55"><defs><style>.a{fill:none;stroke:#ababab;stroke-miterlimit:10;}</style></defs><path class="a" d="M1650.88,36.19a27.58,27.58,0,0,0-14.38-5.75c-6-.45-8.16,1.66-12.22,0-5-2.05-4.88-6.58-10.06-12.22a31.11,31.11,0,0,0-15.15-9c-5.39-1.25-12.68,2.13-28.07,6.17-9.31,2.45-13.87,4.09-21.51,4.12-6.45,0-6.83-1.12-17.72-2.4a142,142,0,0,0-26.57-1c-11,.73-11.83,2.46-21.51,2.4-6.75,0-7.8-.89-16.45-1.37-9.59-.54-10.29.39-21.52.34-14.85-.07-18-1.71-31.63-1.37-7.92.2-6.82.78-14.55,1-13.82.44-20.11-1.17-31.64-1.72-10.49-.49-9.17.66-29.74,1.38-28.92,1-30.19-1.31-47.45.68-8.68,1-13.07,2.13-22.15,2.06-5.28,0-13.52-.5-20.25-1-5.79-.45-6.47-.64-9.49-.69-5.91-.08-9.26.56-17.71,1.72-11.9,1.62-17.92,2.43-21.52,2.06-7.34-.77-6.88-2.82-14.55-3.78-6.8-.84-10,.42-22.14,1.38-10.07.79-9.25,0-19,.68-21.93,1.49-25.05,5.29-36.7,3.77-6.28-.81-9-2.38-15.82-2.05-5.2.25-6,1.27-12.66,2.05a66.37,66.37,0,0,1-18.34,0c-8.44-1.37-8.62-3.88-17.09-4.8-2.24-.24-2.4-.08-12,0-10.61.1-10.81-.09-17.08,0-13.41.2-12.91,1.07-22.78,1-10.66,0-11.21-1-19.62-.68a110.64,110.64,0,0,0-18.34,2.4c-14.27,2.91-17.8,6.14-24.68,5.14-4.49-.66-5.1-2.35-9.49-2.4-4.95-.06-10.06,2.58-12,3.77"/><path class="a" d="M1487.12,18.4c-16.55,1.7-24.81,3.79-29.32,5.47a53.35,53.35,0,0,1-9.07,2.68c-4.42.88-5.12.43-9.75,1.22-5.63,1-6.52,1.94-12,3.08-3.63.75-5.1.29-11,1.26-10.12,1.64-16.49,3.76-26.33,2.37-4.84-.69-6.07-1.59-10.84-2.37-10.8-1.77-16.32,1.2-26.72,1.84-12.88.8-11.7-2.88-28.65-3.43-13.34-.43-25.27,1.49-34.07,2.9-11.77,1.89-11.46,2.77-17.43,2.9-10.88.24-13.23-2.66-27.49-2.9-7.18-.12-8.26.59-14.71,0-7.92-.71-9.5-2.07-14.72-1.58-6,.57-6.79,2.65-12.77,3.17-5.24.44-8.56-.82-12.39-1.59-9.26-1.85-13.07.85-29,2.38a195.06,195.06,0,0,1-35.24,0c-10.35-1-12.49-2.12-21.29-2.11-7.42,0-11.88.82-22.46,2.37-14.7,2.16-23.75,3.49-32.14,4.22-17.94,1.55-15-1.19-37.55,0-10.31.54-30.54,2.14-38.72.52a37.57,37.57,0,0,0-7-.79c-3.79-.07-4.91.5-7.75.53-5,.05-6.64-1.67-11.61-2.64-4.8-.93-8-.23-13.55.27-16.91,1.51-19.76-2.08-34.85-.27-7.45.9-6.09,1.69-15.49,3.17a157.85,157.85,0,0,1-29.42,1.58c-21.81-.47-34.42-3.89-43,.79-.6.32-1.26.73-2.32,1.33,0,0-1,.53-1.94,1a83.83,83.83,0,0,1-15.1,6.06"/><path class="a" d="M738,51a30.93,30.93,0,0,0-8.55-2.92c-5.86-1.08-8,.22-13-.92-5.78-1.32-5-3.57-10.42-4.95-6.52-1.64-9.26,1.14-15.78-.51-5-1.27-4.73-3.27-9.24-4.89-7.3-2.62-11.42,1.41-23.78,1.58-10.31.15-11.4-2.59-28.26-3.9-3.72-.29-3.81-.17-15-.47-24.76-.68-37.14-1-46.89-2.62-6.33-1-8.71-1.82-14.51-2.11-8.22-.41-10.34.8-21,1.44-3.79.23-10.74.12-24.49-.11-14.87-.26-13.07-.23-18.9-.39-39.77-1.13-52-4.33-69.43-2-6.09.83-12.23,1.11-18.27,2.39-4.51.95-8.46,2.08-14.14,1.61-2-.17-3.3-.46-6.47-.65a69.86,69.86,0,0,0-10,.12c-8.29.6-12.27-1.94-23.52-2.63-9.17-.56-16.49-1-25.33,2.47-5.59,2.2-7.39,4.24-14.18,6a126,126,0,0,1-13.56,2.33h0A71.83,71.83,0,0,0,280.9,40a24.65,24.65,0,0,1-11.76-1.31c-4.69-1.62-9.52-1.46-15.29-1.27a92.53,92.53,0,0,0-17.09,2.37h0l-7.65.09"/><path class="a" d="M983.78,72.76c-.2-1-6.88.06-17.22-2.28-3.79-.86-6.22-1.76-11.19-2.28-3.07-.32-3.89-.16-7.74-.33-7.93-.34-8.5-1.2-15.5-1.62-6.79-.42-6.2.39-14.63,0-7.53-.36-7.59-1-11.62-.65-4.9.4-6.84,1.49-11.19,1-3.13-.37-6.56-1.47-6.46-2.28.16-1.24,8.62-1.51,8.61-1.62s-9.63.94-19.8,1c-11.31,0-13.44-1.23-26.68-1.63-7.14-.21-8.71.1-20.66.33-6.71.13-10.29,0-17.9-.06-5.54,0-6.71,0-9.95,0h-3.57c-5.61,0-24.57-3.25-31.47-4.3-12.41-1.89-18-.3-19.15-3.27-.8-2.15,1.14-5.52,3.62-6.79,3.42-1.75,5.84,1.56,11.82.44,1.88-.35,1.46-.65,6.79-2.38.29-.1,4.5-1.46,7-2a31.93,31.93,0,0,1,14.65.35"/><path class="a" d="M1031.37,67.82c-8.21.48-15.24.58-20.69.56-13.9,0-20.86-.08-27-1.23-6.74-1.25-10.87-2.87-17.59-2.35a43.4,43.4,0,0,1-7.68.23c-4-.27-5.43-1-9.31-1.68-2.41-.42-3.11-.37-12.42-.78-6.75-.3-10.13-.45-13.59-.67-7.24-.46-8-.73-14.63-1.12-5.37-.31-9.62-.41-11.68-.45-9.15-.16-11.64.27-19.21.23-7.4-.05-8.76-.48-16.41-.79-11.71-.47-14.08.32-27.78.45-14,.13-12.18-.69-29.86-.78-5,0-4.44.09-5.91,0-4.38-.25-6.12-1-12.24-2.34-2.62-.57-5.69-1.1-11.82-2.17-6.32-1.1-10-1.64-10-2.25s2.91-.18,6.7-2c2.62-1.24,3-2.23,5.07-3.26,1.77-.88,4.58-1.7,8.93-1"/><path class="a" d="M1729.65,66.83a33.27,33.27,0,0,0-9.46-9.8c-9.71-6.5-15.75-2.5-39.87-6.08-11.58-1.72-15.09-3.37-22-1.69-4.13,1-7.16,2.66-13.85,3.71a63.22,63.22,0,0,1-12.16.68,276.1,276.1,0,0,1-33.27-3.21c-13.69-1.91-20.53-2.87-23.71-3.11-13.48-1-23.94-1.39-37,1-17.14,3.09-24,8.57-34.28,5a54.57,54.57,0,0,0-10.94-3.12,53.66,53.66,0,0,0-14.59-.24c-6,.69-6.95,1.75-15.08,3.6-7.9,1.79-12.09,2.74-17.5,2.63-8.11-.16-8.62-2.49-20.67-4.07-5.43-.71-7.27-.5-10.77-.76,0,0-1.75-.13-4.06-.44-6.74-.9-17-4.15-17.51-4.31"/><path class="a" d="M1130.69,60.74c-9.43,2.13-17.74.91-17.81,1.73,0,.53,3.46,1.16,5.41,1.44,7.44,1,10-.62,19.38-.44,3.37.07,5.07.32,5.24-.14.27-.7-3.23-2.68-7.16-3A15.51,15.51,0,0,0,1130.69,60.74Z"/><path class="a" d="M1174.57,53c2.37,1.13,6.78.8,7.16.09.28-.52-1.65-1.22-1.75-1.25-2.45-.87-6.13-.47-6.46.19C1173.34,52.45,1174.24,52.87,1174.57,53Z"/><path class="a" d="M1191.27,60.22c3-.17,6.31-1.2,6.09-1.84-.42-1.24-14.1-1.51-14.62-.34C1182.43,58.74,1186.67,60.49,1191.27,60.22Z"/><path class="a" d="M1261.5,58.58c-7.37.23-17.68.55-26-.61a14.42,14.42,0,0,0-4.26-.1c-2.72.52-3.5,2.69-1,3.56,1.93.68,4.54.11,9.6.36,5.79.27,8.18,1.29,12.12,2,6.68,1.13,11.13.12,23.24-.35,18.32-.72,18.51,1.2,36.87.35,8.3-.38,10.61-.88,20.2-1.06,8.15-.16,15.51,0,15.66-.36s-11.76-1.22-11.62-2.14c.1-.58,5.1-.43,8.09-1.77s2.7-3.48.5-3.92c-1.78-.35-3.72.66-10.1,1.25-1.76.16-7.34.67-8.59,0s3.63-2.32,2.53-2.85-7.25.57-12.13,1.25c-15.24,2.11-19.4.23-37.37,2.13C1267.44,57.51,1268.85,58.36,1261.5,58.58Z"/><path class="a" d="M434.17,58.42c-7-1-8.87,1.84-18.05,1.76-6.59,0-15.38-1-15.42-2.2a.11.11,0,0,1,0,0c.36-1.4,8-1.67,15.41-3.47,6-1.45,8.48-3.09,13.88-2.67,1.63.13,1.21.26,3.29.47,7.61.73,11.29-1.23,13.33,1a2.69,2.69,0,0,1,.77,2c-.49,2.63-7.69,3.2-8.33,3.25A22.74,22.74,0,0,1,434.17,58.42Z"/><path class="a" d="M391.4,51.41c-.39-1.82-8.58-3.2-11.33-2-2.45,1-1.42,4.42,2.74,5C386.69,55,391.72,52.93,391.4,51.41Z"/><path class="a" d="M341.24,56c-1.3-.31-8.86-2.14-14.86-2.05a20.3,20.3,0,0,0-5.13.52c-2.22.56-2.9,1.23-4.61,1.36a9.21,9.21,0,0,1-5-1.19C306.74,52.22,300.37,52.11,296,52c-4.15-.08-10.62-.2-14.35,1.87a8.37,8.37,0,0,1-3.76,1.2c-1.62.09-2.46-.39-3.93-.68-2.57-.51-3.88.21-6.49.51-2.81.33-4.29-.15-8.54-.85-7.73-1.28-7.36-.44-16.06-1.71-5.14-.76-9-1.59-12.64-2.39-6.6-1.44-10.4-.51-13.67-3.42-1.29-1.15-1.25-1.67-3.08-3.25A23,23,0,0,0,205.75,39c-3.95-1.35-6.35-1.17-13-1.54-8.5-.47-8-.94-12.3-1-8.56-.15-11.24,3.72-18.62,2.56-.67-.1-2.16-.41-5.13-1-4.66-1-8-1.73-9.4-2.05a137.18,137.18,0,0,0-15-2.91c-6.65-.73-6.49.42-21.87.68-5.81.1-8.71.15-12.13,0-5.77-.25-8.8-.74-14.35-.34-3,.22-3.58.47-6.84.86-6.79.81-9.66.4-18.11.51-9.15.12-13.73.18-19,1-7.91,1.28-9.41,2.72-14.86,2.23S19.33,35.88,13.89,36c-2.6,0-5.28.45-11.28.51-1.06,0-1.93,0-2.51,0"/><path class="a" d="M747.48,67.2A146.51,146.51,0,0,0,729,65.68c-9.51-.18-12.73.67-21.56.43a136.8,136.8,0,0,1-21.34-2.39c-17.52-3.07-16.29-5.54-28.07-7.11-12.15-1.6-12.48,1.15-34.25,0-9.79-.51-14.68-.79-15.16-.82-11.68-.7-14.23-1-18.8-.42-6.69.85-6,2.09-12.64,2.69s-8.07-.54-14.87.42c-4.62.65-3.65,1.14-9.55,2.07-5,.79-8.45.86-9.82,2.69-.52.69-.4,1.17-.68,1.79a6.39,6.39,0,0,1-.44.69c-1.53,2-4.29,2.24-5.34,2.27"/><path class="a" d="M2058.06,60.93a121.68,121.68,0,0,1-20.69,1.1h-.1c-2.36-.07-4.1-.2-4.37-.23-1.15-.09-15.18-1-24-1.16a8.7,8.7,0,0,1-4.87-1.38,7.2,7.2,0,0,1-2.62-3.33c-.34-.9-.77-2.22-.27-2.92.79-1.13,6.5,1.86,6.84,1.3.21-.35-1.34-2.71-4-3.46-3.46-1-7.32-.37-18,1.16-9.78,1.39-14.68,2.09-15.74,2.18-6.78.6-12.88.45-25.07.14-8.3-.2-11.72-.48-17.7,0-7,.57-10.16,1.59-11.61,2.14-4,1.54-3.16,3-5.8,3.87-4.18,1.41-12.87-.49-22.39-2.33a36.32,36.32,0,0,0-4.29-.61c-2.9-.22-3.76.1-8.27.1a44.45,44.45,0,0,1-5.88-.31c-2.81-.35-3.89-.4-4.07-1s.6-1.63,1.58-2.13c2.48-1.26,6.27.72,8.21.06,1.78-.61,1.38-1.48,4-2.56a10.94,10.94,0,0,0,3.33-1.65c.63-.5,2.14-1.71,1-2.81s-3.73-1.42-5.81-1.73c-4.36-.66-6-.07-8.22-.82-2-.66-3.08-2-2.5-2.86,1-1.54,6.28-2.88,11.27-1.24,2,.65,1.47,1,4.31,2,1.93.73,4.33,1.16,9,2.42,1.89.51,3.75,1.12,3.75,1.12l.14.05a23.41,23.41,0,0,0,7,.59c4.8-.31,5.66.8,14.39,1,1.42,0,2.33,0,3.1,0,1.65,0,2.86-.15,3.08-.17,1.73-.15,7.21-.12,20.75.36,0,0,4.88,2.43,8.36.9.19-.08.08,0,.76-.39a25.88,25.88,0,0,1,7.27-2.72c.36-.06.66-.1.87-.12,7-.89,13.39-1.08,13.39-1.08,2,0,1.41-.07,4.18-.06,4.11,0,7.34-.26,12-.56,6.47-.41,6.43-.52,9.61-.66,2.53-.11,4.66-.21,7.24-.15,4.59.11,7.76.75,9.84.91,4,.3,9.7.6,16.77.45a101,101,0,0,0,10.23,1.7,74.35,74.35,0,0,0,14.45,0"/><path class="a" d="M2059.76,15.8c-34.48,6.92-54.44,5.34-66.52,2.25,0,0-23.36-6-38.61-2.92l-7.85,1.57c-6.72,1.37-6.82,1.42-7.84,1.58a50.34,50.34,0,0,1-14.18-.23c-8.13-.95-8.16-2.2-13.58-2.25-3.89,0-4,.61-11.76,1.58-6.54.81-11.68,1-15.09,1.12-4.28.15-5.62.05-15.08,0-9.9-.05-10.82.05-14.78,0-13.45-.16-14.27-1.45-28.06-2a230.35,230.35,0,0,0-26.85.45c-7.86.59-10.42,1.2-17.5,2-29.35,3.38-32.56-1.73-48.27,2.7-.59.17-.4.12-24.74,10.11a56.82,56.82,0,0,0-9.65,4.95,47.33,47.33,0,0,0-6.64,5.17"/><path class="a" d="M1831.34,62.1c-3.3-.08-3.17-.29-5.34-.21-3.9.14-5.78,1-11.57.37-6.45-.64-9.74-.83-11.32-3.17-.9-1.34-1.25-3.36-.48-4.08,1.21-1.14,4.62,1.5,9,1.27a17.51,17.51,0,0,1,1.9-.05c1.91.06,3.1.49,7.08.55a56.93,56.93,0,0,0,8.43-.52c9-1.35,12.84-6.95,16.4-4.92,1.14.65,2.1,2,1.84,2.88-.44,1.47-4,.78-5.37,3-.85,1.34.08,2.11-.67,3.3C1840.15,62.28,1837.15,62.24,1831.34,62.1Z"/><path class="a" d="M1849.64,40.44l-.67.18a12,12,0,0,1-6.21-.18c-2.11-.67-5.18-2.42-4.91-3.53.35-1.51,6.64-1.22,10-.79,2.93.38,6.8,1.27,6.78,2.16S1851.78,39.84,1849.64,40.44Z"/></svg>