<svg id="Layer_1" data-name="Layer 1" xmlns="http://www.w3.org/2000/svg" viewBox="0 0 2059.76 74.27"><defs><style>.cls-1{fill:none;stroke:#888;stroke-miterlimit:10;}</style></defs><path class="cls-1" d="M0,27.9a152.25,152.25,0,0,0,40.24,7.86c24.25,1.38,38.6-3.8,54.35-6.55,39.59-6.92,39.72,9.93,105.88,12.46,36.86,1.4,71.27,2.71,89.41-4.54,4.76-1.9,15.41-7.2,24.94-3.5,4.26,1.66,7.62,4.84,13.18,4.37,4.07-.34,6.3-2.39,8.94-3.93,8.17-4.76,15.94-2,31.53-1.31.4,0,10.31-.42,30.12-1.31,22.16-1,26.94-1.27,34.82.44,5.88,1.27,6.25,2.08,16.94,4.8,1.75.45,12.41,3.15,23.06,4.81,13.68,2.14,33,5.15,53.65.88C532.77,41.19,540.8,39,552,39.75c4.39.3,5.47.8,11.29,1.31a138.84,138.84,0,0,0,23.53,0c14.63-1.5,15.21-5.63,32.47-9.17,1.67-.34,9.43-1.11,25-2.63,11.76-1.15,23.48-2.88,35.29-3.49,9.29-.48,12.89-.23,18.35-2.19,2.67-.95,5.09-2.19,8.94-2.18,4.07,0,5.29,1.38,8.94.87,3.45-.48,4.19-1.95,7.53-3.06,4.51-1.49,8.45-.58,11.77,0,7.81,1.38,14.38,1.35,24.94,1.31,10.25,0,8.48-1.68,25.41-3.06,10.47-.85,11.76-.27,23.06-1.31,11.68-1.07,10.94-1.75,18.35-2.18,10.67-.62,11.91.79,28.71,1.31,13.4.41,14-.45,23.06.44,7.78.76,6.42,1.3,19.29,3,10.34,1.41,14.08,1.45,24,3.06,5.82,1,9.7,1.78,11.77,2.19,17.86,3.54,37.3,3.22,47.06,3.06,22.74-.38,34.11-.56,48.47-4.81a319.37,319.37,0,0,1,33.88-8.3c7.28-1.36,9.79-1.54,12.7-1.31,11.44.87,14.47,6.84,25.42,7.43,5.3.28,5.2-1.09,14.58-2.19a110.22,110.22,0,0,1,23.53,0c3.14.25-34.84-2.8,52.71,2.19,24.43,1.39,42.53,2.49,44.71,2.62,12.78.77,50.76,2.17,98.35,0,31-1.42,29.29-2.74,50.82-2.95,19.74-.19,32.7.81,61.77.33,19.3-.32,16.38-.79,23.59-.66,42.21.79,79.31,15.49,108,18.52a55.15,55.15,0,0,0,16-.44c8.17-1.47,12.35-4.26,17.42-6.12,11.76-4.32,20.88-.9,31.53,0,21.62,1.83,29.14-8.47,50.82-13.11,23.7-5.06,35.47,2.82,72,10.06,0,0,74.45,16.57,86.59,7.42.67-.5,3.49-2.86,7.06-2.62,4.16.29,6.87,4,7.76,4.92,8.35,9.16,45.77-10.13,79.77-11.8,21.63-1.06,20.88,6,54.35,8.52a241.45,241.45,0,0,0,57.17-2.62"/><path class="cls-1" d="M565,41.2a59.61,59.61,0,0,1,9.84-5c12.09-4.8,25.39-.37,28.59.44"/><path class="cls-1" d="M868.68,50.56a412.62,412.62,0,0,1,47.74-12.68c12.16-2.47,23.53-4.77,37.89-5.68,21.87-1.38,33.5,1.57,56,3.93,15,1.58,12.87.58,66.43,2.19s51.24,2.47,92.37,3.49c56.64,1.42,50.2-.49,76.8,1.32,31.56,2.14,45.15,5.14,74.21,3.93,16.62-.69,14.66-1.78,42.55-3.93,27.71-2.15,48.93-2.57,73.69-3.06,26.86-.54,37.22-.18,64.87-1.31,11-.46,20.11-1,26.14-1.32"/><path class="cls-1" d="M477.76,67c8.16,3.88,13.49,2.16,29.3,2.62,13.46.39,14.79,1.79,21.53.33,5.43-1.18,6.86-2.58,12.7-3.28,3.09-.37,7.63.08,16.59,1,12,1.21,16.16,1.65,21.88.33.7-.16,7.19-1.65,7.06-3s-7.34-1.51-25.76-2.62c-15.52-.93-23.28-1.4-27.53-2-6.78-.9-12.09-1.95-20.12-2.29-4.65-.2-2.46.17-13.27.14-3,0-5.68,0-5.79.51-.18.92,6.86,2.37,6.71,3.28-.21,1.24-13.48.45-15.53.33-9.38-.56-13.7-1.41-14.12-.33S474.62,65.46,477.76,67Z"/><path class="cls-1" d="M416.35,57.3c0-1.89-6.89-4-13.06-3.28-1.61.21-6.35.8-7.05,3.28-.4,1.39.56,3,1.76,3.94,2.54,1.9,6.5.74,11.29-.66C413.48,59.35,416.34,58.52,416.35,57.3Z"/><path class="cls-1" d="M728.18,62.67c-.7-1.43.16-3.59,1.58-4.92,4.38-4.08,11.45,2.12,25.06,1,7.68-.64,11-3.08,16.94-1,3.54,1.25,7,3.78,6.53,5.08-.64,1.88-8.71-1-22.23.33-5.24.53-8.5,1.43-16.06,1.64C730.85,65.05,728.79,63.93,728.18,62.67Z"/><path class="cls-1" d="M1143,56.33c4.19-.18,2.55-.23,13.76-.92,12.59-.78,18.88-1.18,22.59-1.17,15.27,0,16.17,2.58,29.65,2.09,10.62-.38,10.9-2,16.94-1.16,10.63,1.46,11,6.62,21.53,8.36,8.08,1.34,8.82-1.56,21.53-1.16,12.92.41,15.15,3.52,22.94,2.09s8-5,15.53-6.5,12,1.15,21.88,2.79c16,2.65,30.26-.08,50.47-4,13.94-2.67,14.63-4,22.24-5.34,13.6-2.32,34.64-1.86,66,11.84"/><path class="cls-1" d="M716.18,22.62c.28-7.88.58-12.12.76-12.12s.36,2.93.53,11.17"/><path class="cls-1" d="M706,21.61c0-3.81,0-5.86,0-5.87s0,1.42-.07,5.4"/><path class="cls-1" d="M754.61,20.54c.31-7.71.59-10.51.8-10.51s.42,2.43.63,10.49"/><path class="cls-1" d="M788.5,17.28c.18-5.38.33-7.42.44-7.42s.21,1.65.3,7.28"/><path class="cls-1" d="M822.65,14.34c.28-5.94.55-8.19.75-8.19s.42,1.83.63,8"/><path class="cls-1" d="M857.25,15.55c.11-6.14.19-8.46.24-8.47s.08,1.89.08,8.3"/><path class="cls-1" d="M871.23,28.34c-.09-8.19-.47-11.06-.63-11.06s-.39,2.51-.71,11.06"/><path class="cls-1" d="M893.56,28.16c.32-8.67.6-11.57.8-11.57s.43,2.67.63,11.73"/><path class="cls-1" d="M924.65,26.3c.33-8.67.64-12,.86-12s.45,3.27.67,12.33"/><polyline class="cls-1" points="786.94 6.78 788.53 9.49 792.56 9.9"/><line class="cls-1" x1="786.94" y1="11.98" x2="788.53" y2="9.49"/><polyline class="cls-1" points="705.6 13.68 705.96 15.85 708.54 17.03"/><line class="cls-1" x1="704.25" y1="17.16" x2="705.96" y2="15.85"/><polyline class="cls-1" points="824.92 2.72 823.14 6.29 826.35 8.87"/><line class="cls-1" x1="819.28" y1="7.22" x2="823.15" y2="6.29"/><polyline class="cls-1" points="758.76 7.68 755.5 10.18 757.19 13.79"/><line class="cls-1" x1="751.89" y1="8.14" x2="755.5" y2="10.18"/><polyline class="cls-1" points="716.52 6.65 716.81 10.57 720.96 11.4"/><line class="cls-1" x1="712.93" y1="12.11" x2="716.81" y2="10.57"/><polyline class="cls-1" points="854.13 9.6 857.54 6.96 855.75 3.16"/><line class="cls-1" x1="861.66" y1="7.69" x2="857.54" y2="6.95"/><polyline class="cls-1" points="891.12 20.47 894.4 16.72 891.43 12.73"/><line class="cls-1" x1="899.32" y1="16.71" x2="894.41" y2="16.72"/><polyline class="cls-1" points="921.53 14.92 925.76 14.37 927.19 10.83"/><line class="cls-1" x1="928.69" y1="17.79" x2="925.76" y2="14.37"/><polyline class="cls-1" points="870.37 22.09 870.91 17.21 866.43 14.87"/><line class="cls-1" x1="874.69" y1="13.82" x2="870.91" y2="17.21"/><path class="cls-1" d="M81.53,40.64a302.44,302.44,0,0,1,60.71.47c38.41,4.29,48.38,13.41,86.11,15.09,17.77.79,15.23-1.24,49.42-.94,31.21.28,48.51,2.11,63.52,9.43a63,63,0,0,1,12,7.55"/><path class="cls-1" d="M1648.21,61c-4.22.6.71,2.89-3.53,4.68-2.58,1.09-7.38,1.5-31.29,2.26-29.91.94-33,.64-34.12.12-2.17-1,2.8-3.12,8.94-4.16,7.46-1.25,14.94-.67,16-1.48a.5.5,0,0,0,.11-.16c.86-1.7-4.55-4.48-4.11-5.68.59-1.6,10.85,1.85,23.3,1.15,5.06-.28,3.33-.85,14.35-2.49,0,0,23.8-3.38,27.06.42.35.4-4.29.57-6.12,1.66-3,1.76,5,3.85,2.82,4.39S1652.33,60.41,1648.21,61Z"/><path class="cls-1" d="M2001.26,34.76a27.34,27.34,0,0,0-16.06-8.41,28.38,28.38,0,0,0-15.87,2.27"/><path class="cls-1" d="M1957.46,60.67a257.29,257.29,0,0,0-44.66-11.88A263,263,0,0,0,1864,45.07c-33.07.28-92.32-1.53-175.94-5"/></svg>