<svg xmlns="http://www.w3.org/2000/svg" viewBox="0 0 704.91 704.92" class="pfp"><defs><style>.a{fill:#6c8778;}.b{fill:#a97a69;}.c{fill:#bc8e84;}.d{fill:#7d3a2f;opacity:0.69;}.e{fill:#9b6f61;}.f{fill:#a07265;}.g{fill:#424242;stroke:#424242;}.g,.r{stroke-miterlimit:10;stroke-width:2px;}.h{fill:#070707;}.i{fill:#ba8e8a;}.j{fill:#7c5d59;}.k{fill:#9b5d5d;}.l{fill:#d1c6bd;}.m{fill:#664040;}.n{fill:#aa9b96;}.o{fill:#5e353a;}.p{fill:#4f2327;}.q{fill:#5f8c5d;opacity:0.12;}.r{stroke:#000;}</style></defs><path class="a" d="M704.91,352.46h0A352.45,352.45,0,0,1,352.46,704.92h0A352.47,352.47,0,0,1,0,352.47H0C0,157.8,157.8,0,352.45,0h0C547.11,0,704.91,157.8,704.91,352.46Z"/><path class="b" d="M217.61,219.67c3.5-6.73,14.71-26.52,45.64-46.58C291,155.11,329,130.43,372,140.15c52.1,11.78,77.75,66.55,91.76,96.47,19,40.65,21.74,66.43,21.18,78.11-.33,6.79-1.22,12.74-2.59,21.89a372.39,372.39,0,0,1-16,65.29c-12.12,35.7-18.19,53.55-29.65,59.65-15.25,8.12-22-3.95-55.41-5.65-42.74-2.17-67.15,15.8-106.59,7.41a43.44,43.44,0,0,1-17.47-7.41c-15.83-11.33-20.36-31.39-24.68-50.5-1.63-7.23-2.47-13.65-4.15-26.5-2.67-20.42-3-30.76-4-40.39-4.7-46.6-21.42-52.19-17.82-84.14A97,97,0,0,1,217.61,219.67Z"/><path class="c" d="M469.66,385.64c-1,22.18-5.53,30.86-1.94,33,2.68,1.59,7.49-1.87,13.94-6.49a49.29,49.29,0,0,0,13.59-13.77c4.1-6.38,5.27-11.75,7.24-20.82,1.85-8.51,1.89-15.25,2-28.72,0-6.16-.16-8.37-1.72-10.59-3.93-5.62-13.13-6.52-19.67-4.63-4.77,1.37-11.38,5.17-13,11.23-.8,3,.25,4,.47,11.88-.07,2.38-.17,5.93-.3,10.24C469.93,377.75,469.77,383.14,469.66,385.64Z"/><path class="d" d="M474.31,362.85c-2.55-2.86-1-8.52-.7-9.41.69-2.46,1.34-4.76,2.94-5.18,2.91-.75,6.67,5.41,7.17,6.24,2.68,4.38,1.36,5.48,4.12,11.76,2.11,4.8,3.68,6,3.77,9.53,0,1.63.1,4.59-1.77,6.12-2.84,2.32-7.52-.81-9.76,1.65-1.09,1.18-.29,2.24-1.42,3.53-2.45,2.81-9.36,1.35-9.52,0-.09-.74,1.88-.89,4.82-3.18,2.13-1.66,4.64-3.61,5.06-6.35.56-3.66-3.21-4.71-2.94-9.18a7.06,7.06,0,0,0-.71-4.23A6.49,6.49,0,0,0,474.31,362.85Z"/><path class="d" d="M492.61,350.71c-1-3.59-1.92-7.25.11-9.65,1.74-2,5.4-2.88,6.94-1.53,1.7,1.48-.23,4.62-.23,10.83,0,4.35.94,5.67,1.53,9.64,1.14,7.71-.8,13.84-3.21,21.48s-4.45,14.09-8.67,14.76c-1.68.27-3.74-.38-4.12-1.53-.68-2,4.63-3.78,8.35-8.59,5.66-7.33,6.37-20.17,2.24-28.23A31.22,31.22,0,0,1,492.61,350.71Z"/><path class="c" d="M226,357.44c-1-9.36.89-11.52-.53-16.06-1.76-5.61-5.45-5-12.35-12.53-9.09-9.91-7.32-16-13.24-18-6.35-2.12-15.09,2.7-18.7,9.18-1.59,2.84-1.93,5.54-1.42,14.7.68,12.12,2,19.83,4.59,35.94,1.92,11.83,2.25,14,4.24,17.3,3.83,6.4,6.84,5.5,13.59,13.23,8.08,9.28,8.17,15.67,13.94,16.77,3.24.62,6.06-.85,9.17-2.47,1.44-.75,8.92-4.64,9.65-11,.28-2.47-.58-4.22-1.43-6.35-.52-1.27-.67-2-1.11-3.19,0,0-1.28-3.62-2.4-8.15-.33-1.32-.47-2.12-1.54-10.12-1.17-8.79-1.85-14.24-2.29-17.88C226,357.93,226,357.49,226,357.44Z"/><path class="e" d="M234.21,629.9c-5-5.81-8.53-12.41-7.66-19.17a12.79,12.79,0,0,1,2.06-5.64A199.73,199.73,0,0,0,234.21,629.9Z"/><path class="f" d="M486.78,598.85c-26.08,34.16-64.69,58.22-81,61-12.51,11.25-31,23.86-43.26,18-3.74-1.77-6.29-5-8.1-9.2-21.42,14.23-69.85-1.26-99.2-21.27a142.85,142.85,0,0,1-14.45-10.93,69.69,69.69,0,0,1-6.59-6.61,199.73,199.73,0,0,1-5.6-24.81c-3.39-20.65-4.2-43.26,3.64-46.94,1.33-.63,3.9-1,9.06-1.83a126.21,126.21,0,0,1,16.36-1.41,24.17,24.17,0,0,0,1.92-4.83c1.59-5.73-.07-8.61-.43-19.1-.55-15.86.45-14.88-.38-25.18-1-11.72-1.43-17.59-2.32-22-1.2-5.91-2.34-9.15-.85-10.25,1.95-1.45,8,1.84,10.94,6.7a11.23,11.23,0,0,1,1,2.18c12.06-7.94,50.73,5.24,62.26,31.59a20.42,20.42,0,0,1,2,8.5,99.91,99.91,0,0,0,108-53.21A104.72,104.72,0,0,0,441.61,500c.47,2.2,1.11,4.78,1.81,8s1.44,7.08,2.13,11.82c1.1,7.48,1.41,13,1.47,13.71a46.73,46.73,0,0,0,11,11.65,61,61,0,0,0,24.86,9.66c1.78.24,5.36.65,12,1.59,8.78,1.24,9.42,1.51,9.91,2C509,562.54,500.34,581.09,486.78,598.85Z"/><path class="e" d="M240.8,636.51c-.23,3-.34,4.25-1.08,4.34-1.4.17-3.44-4.17-5.51-11A69.69,69.69,0,0,0,240.8,636.51Z"/><path d="M524.9,274.5c.76-.44,2.05,1.11,2.59.7.82-.62-.47-5.67-4-8.23-.82-.6-1.54-.89-2-1.83-.63-1.18-.33-2.39.26-4.76s1-4.07,2.39-5.83,2.19-1.65,2.29-2.55c.24-2.1-4.15-2.82-6-6.62-.77-1.58-.69-3.11-.53-6.18.35-6.85,2.69-7.84,1.77-11.29s-3.84-3.74-4.06-7.33c0-.14-.18-3.62,2.11-5.55,2-1.71,4.23-.75,4.68-1.77.85-1.91-7.14-4.76-9.09-11.65-.32-1.14-.23-1.53.27-8.56.58-8.23.88-12.35.79-13.14-.71-6.43-4.22-11.12-7.85-16a121.62,121.62,0,0,0-8.65-10.33c-3-3.13-4.53-4.27-4.94-6.7-.67-4,2.57-6.51,1.24-8.83s-5.46-.94-6.36-2.82c-1.17-2.47,5.33-6.12,9-13.94a26.4,26.4,0,0,0,2.47-9.53c.28-4.25-.64-7.28-3.64-15.41-6.39-17.26-7.75-18.49-9.24-18.65-4.13-.44-6.73,7.55-10.59,6.71-2.47-.54-1.77-4-5.64-8.47-4.32-5-8.63-4.8-9.36-8.47-.66-3.32,2.4-5.77,1.59-6.53-1-.94-6.66,1.72-9,6.7-1.46,3.13.36,4.42-.71,8.47-.77,3-3.05,7.71-6.7,8.47-4.31.91-8.33-2.93-10.06-5.64a13.86,13.86,0,0,1-.18-14.12c2.58-4.25,6.61-4.46,6.53-6.88s-4.56-5.39-8.82-5.3c-5.27.11-6,4.64-12.35,5.65-4.14.66-4.06-1.24-10.06-.88-5.37.32-8.51,2-10.06.35-1.29-1.39,0-3.49-1.24-4.41C400,52.08,397,56,393.43,55c-2.39-.69-4.22-3.39-4.77-5.65s.3-3.37-.52-4.24c-1.28-1.32-4.44.21-7.06.89-6.5,1.68-8.66-2.16-16.06-2.65-6.22-.41-6.24,2.19-23.3,6.88-2.23.62-.68.14-10.11,2.53C320,55.67,316,56.81,311.25,58.5c-5.35,1.91-8,2.87-10.11,4.47-5.11,3.89-4.23,6.7-9.77,11.29-4.86,4-7.14,3.18-9.18,6.82-1.95,3.49-2.33,8.7-2.35,9-.19,2.91.25,4.29-.82,6-1.4,2.22-4.06,2.89-5.06,3.14-2.23.56-3.89.26-11.38-1.67-6.8-1.76-7.15-2-8.65-2-1.28,0-3.93.75-9.18,2.21-5.58,1.56-6.62,2-7.67,3.09-1.54,1.63-.88,2.39-2.74,5.47-.86,1.42-2.71,4.48-5.73,5.82a10.92,10.92,0,0,1-6.89.27c-11-2.25-22.65.73-26,1.59-4.82,1.23-7.91,3-13.5,6.26-6.41,3.75-17.83,10.22-27.41,22.47-10.46,13.39-13.44,26.82-12.94,27.06s3-8.57,11.3-13.18c5-2.81,11.12-3.5,12-1.88.76,1.42-3.24,3.21-4.94,8.47-1.9,5.86,1.7,7.89-.24,12.47-1.87,4.41-5.76,3.87-9.88,10.36-.49.76-3.11,4.89-2.12,5.88,1.74,1.74,12.37-8.53,15.53-6.12,1.07.82.77,2.72-.24,8-2.94,15.38-3.82,17-3.76,21.18.07,5.5,1.66,9.74,3.29,14.11,3.68,9.85,7.42,11.56,6.36,15.3-1.47,5.15-9,3.38-15.53,10.59-6.06,6.66-6.17,15.35-6.12,17.64,0,1.95.24,10.79,6.35,16.47,2.92,2.72,3.76,1.52,10.12,5.65,5.65,3.67,9.4,6.1,10.59,10.35,1.12,4-1.31,5.2.23,9.65,1.32,3.8,3.49,4.07,4,7.77.32,2.32-.44,2.85-.23,6.58.15,2.75.75,5.65,1.17,5.65s.06-4.11,1.42-9.18c.94-3.54,2.15-8.05,5.64-10.35,4.65-3.06,12.27-1.48,16.71,2.35,2.23,1.93,1.68,2.72,8.47,16,2.31,4.54,3.88,7.38,7.06,8.48a9.85,9.85,0,0,0,6.35-.24c-1-9.82-1.28-17.87-1.41-23.53-.43-18.72,1.27-18.65-.47-26.35-.84-3.73-2.34-8.62-.47-9.88a3.65,3.65,0,0,1,4.47,1.17c.6,1.1-.26,2.13.23,2.59,1.12,1,7.26-2.43,6.83-4.71-.05-.25-.26-.86-2.59-1.88-4.28-1.87-6.17-1-7.77-2.12-3.3-2.36-1.26-10.49-.94-11.76,1.51-6,3.78-6.3,7.77-14.35,3.57-7.23,2.59-8.7,6.12-13.42,1.82-2.44,4.36-5.75,8.7-7.29,4-1.43,5.13.27,8-1.18,4-2,3-6,7.77-12.47,2.22-3,5.13-7,9.64-7.76,3.41-.57,6.17,1,11.06,3.76,7.31,4.19,8.07,6.94,12.94,9.18,2.95,1.35,7.6,2.62,14.59,1.41-1.65-.06-12.46-.61-16.47-8-.25-.47-2.33-4.29-.94-5.88s5.51.69,14.35,3.06c7.08,1.89,11.74,3.09,17.18,2.12,6.41-1.15,11.35-4.87,11.06-5.65s-5.51,1.65-13.65,1.88c-8.72.25-17.35-2.1-17.41-4.23,0-1.87,6.49-1.44,10.59-6.59,4.33-5.45,3.26-13.77,1.88-14.12-1.11-.28-1.63,4.76-6.59,8.71-.66.52-5.91,4.57-12.47,3.53-1.54-.25-5.58-.89-6.9-3.68-1.09-2.3.46-4.33-.86-5.74-1.53-1.61-4.38.27-5.65-1.17-1.11-1.26.56-3.24,1.65-9.18.72-3.92.27-4.61,1.17-5.41,2.25-2,5.89,1.5,10.59-.24,1.74-.64,1.93-1.37,3.15-2.5a13.11,13.11,0,0,1,2-1.5c1.76-1.12,8.48-3.85,12.92-2.58,5.46,1.56,6.16,8.8,9.67,15.76,8.07,16,29.25,27.22,43.29,22.82,8.26-2.59,13.83-9.79,13.18-10.82s-6.88,4.59-16,4.47c-10-.14-18.44-7.09-22.59-13.88-1-1.69-5.19-8.49-2.83-11.53,2.23-2.86,9-.87,16,1.18,7.39,2.16,11.87,3.47,13.18,7.05,1.93,5.27-4.64,11-3.06,12.71,2.32,2.56,16.24-9.69,21.41-6.12,2.94,2-1.62,8.42.71,14.12,3.05,7.49,15.61,11.52,25.41,9.88,7.88-1.31,10.9-5.81,16-3.76,3.8,1.52,6.91,5.92,6.12,8.94-.75,2.86-4.78,3.6-4.47,4.94.27,1.17,3.37.87,8.7,2.59,3.21,1,4.82,1.57,5.42,2.82,1.07,2.25-1.48,4.83-4.47,10.12-3.74,6.59-5.8,10.23-5.18,13.88.69,4.12,4.11,4.26,13.18,12.71,6.3,5.87,9.47,8.9,10.35,13.17,1.16,5.65-2.06,7.95,0,12.24,2.17,4.52,6.64,3.84,9.29,8.21,2.06,3.39.42,5.55,0,13.41-.87,16.56,5.63,22.3,2,31.59-.34.87-1.09,2.6-.35,3.44,1.31,1.48,5.68-1.82,13.41-3.62,4.87-1.14,10.15-2.36,14.82.09,3.56,1.86,4.43,4.62,6,4.14,2-.6,1.15-5.17,3.74-12.55a33.19,33.19,0,0,1,3.29-7.06c3.94-6.2,7.71-6.36,11.18-11.06,2.8-3.8,3.21-7.59,3.88-13.77.51-4.66,1.36-12.52-1.17-21.17C525.13,279.33,523.79,275.14,524.9,274.5ZM259,207.79c-2.47,2.37-8.13,5.7-11.3,3-2.48-2.12-2.6-7.24,0-9.88s6.83-1.45,9.89-.53c1.66.5,3.43,1.06,3.88,2.47C262.06,204.81,259.71,207.07,259,207.79ZM351,68.85c-5.56,1.85-9.15,4.16-13.65,2.59-.3-.11-4.31-1.56-4.47-4s3.52-4.39,5.41-5.41c12.27-6.61,25.68-1.62,26.83-1.18,1.9.74,6.81,2.65,6.58,4.23C371.42,67.16,362.88,64.9,351,68.85Zm88.64,39.23c-2.84,2.87-11.43.19-13.41-4.58-.66-1.61,0-2.11-.35-4.06-1.22-7.4-12-10.21-11.29-12.36.36-1.17,4-1.7,7.05-.53,4.27,1.65,3.64,5.21,8.3,9s8.57,2.72,10.23,6.36C441.11,103.91,441.06,106.68,439.66,108.08Z"/><path class="g" d="M213.16,297.62q7.2-1.06,14.67-2,5.83-.74,11.54-1.36l.09,10.5c-3.81,0-7.85-.08-12.09-.35-5-.31-9.61-.8-13.94-1.41Z"/><path class="h" d="M264.34,265.25c5.47-2.77,10.16-3.34,19.34-4.36,14.71-1.64,24-.36,26.42,0,7.91,1.18,12.73,2,16.88,6,3.94,3.82,5.62,8.94,6.27,10.9,1.33,4,2,6.08,1.09,7.62-2.18,3.66-10.95.43-24.52-.81-7.59-.7-21.49-2-36.77,1.63-10.72,2.54-16.86,6.24-20.42,3s-1.61-10-1.36-10.9C253.33,270.82,260.53,267.18,264.34,265.25Z"/><path class="h" d="M381.32,281.38c3.5-8.47,12.52-12.08,14.87-13,10.48-4,12.23,1.16,34.32,0,5.39-.28,10.42-.85,16.49,1.62a28,28,0,0,1,9.73,6.76c1.09,1.17,8.83,9.43,6.76,13.52-2.25,4.44-13.31-1.62-35.41-.9-22.42.73-33.63,1.1-38.11,2.25-1.81.46-6.69,1.8-8.92-.54C378.43,288.36,381,282.16,381.32,281.38Z"/><path class="d" d="M206.72,349.15c3-4.9,4.1-5.06,4.59-4.95,1.87.43,1.21,6.2,3.53,6.89,1.95.58,4.23-3,4.94-2.47s-2.12,4.14-3,10.05c-.45,3-.18,5.33-.88,5.48-1.05.22-2.06-5-4.44-5.15-2.05-.14-3.7,3.52-3.78,3.7-1.74,3.93.19,8,.46,8.5,2.32,4.68,7.5,6.54,8.64,6.95,3.52,1.25,6.3,1,6.71,2.41a2.65,2.65,0,0,1-1.41,2.64c-2.43,1.32-5.13-2.6-11.47-4.41-5.16-1.46-6.42.27-8.47-1.41-4.08-3.33-1.82-12.34-.71-16.76C202.6,356,204.29,353.16,206.72,349.15Z"/><path class="d" d="M186.43,328.5c.79-3.1,2-5.47,4.23-6.53,2.81-1.32,6.85-.41,8,1.76.83,1.66-.42,3.33-1.77,6.53-1.57,3.74-.83,3.78-3.35,17.12-1.8,9.53-1.86,7.79-2.3,11.29-1,8.22-1.74,13.92,1.59,18.18a24.58,24.58,0,0,0,7.41,6c2.42,1.2,4.1,1.44,4.77,3,.9,2.09-.48,5.41-2.3,5.82-.64.15-1.92.07-6.7-6a57,57,0,0,1-6.18-8.82c-4.15-8.13,0-12.16-1.53-26C187.16,341.09,184.34,336.64,186.43,328.5Z"/><path class="i" d="M322.29,373.41a19.76,19.76,0,0,0-1.57,1.68c-2.65,3.84-2.85,10,0,13.76,2.46,3.22,4.93,2.32,11.65,5.12,3.68,1.53,3.63,2.47,13.24,10.23,7.67,6.2,11.5,9.31,12.7,9.36,9.48.41,19.09-17.11,27.18-18a10.1,10.1,0,0,0,3.18-.83,11.65,11.65,0,0,0,5.64-5.88,11.23,11.23,0,0,0,.21-8.38c-1.4-3.31-4-3.73-7.09-6.62-2.87-2.65-4.15-5.49-6.31-11.18-6.25-16.39-9.38-24.58-11.32-33.25-2.39-10.67-2.45-15.6-7-18.69-.4-.27-5.21-3.4-10.35-1.41-4.31,1.67-7.24,6.22-7.29,11.53a100.68,100.68,0,0,1-2.83,15.06s-4.88,18.23-14.35,30.71C325.17,370.29,322.29,373.41,322.29,373.41Z"/><path class="j" d="M463.49,408.93s-10.44,29.2-20.1,34c-.62.31-1.13.52-1.43.65-.7.25-7.31,2.5-11.93-.83-8.73-6.27,1.18-24-9.13-35.29-2.46-2.7-5.72-4.07-12.24-6.82-9.73-4.11-18.09-7.65-26.11-4.95-9.26,3.12-10.09,11.87-20.48,13.27a16.67,16.67,0,0,1-7.43-.53c-6.27-2-7.92-7-11.5-10.38-10.64-10-33.86-1-36.36,0-5.59,2.16-16.76,6.49-21.88,16.94-2.12,4.33-3,9.23-4.24,16.59-1.22,7.13-2,15.05-7.57,19.1l-.36.24c-4.74,2.89-11.28,2-15.71-.28s-8.64-6.61-15.88-31.06c-1.86-6.26-2.29-8.86-3.77-14.89-1.2-4.84-1.74-7.28-2.59-9.82a58.07,58.07,0,0,0-5.25-11.41c1,8.72,2.6,20.91,5.25,35.41,3.4,18.57,5.09,28.11,9.53,38.47a134.6,134.6,0,0,0,20.47,32.47c6.8,8.1,18.91,22.51,38.47,32.47,5.42,2.76,43.44,21.38,83.65,5.3,23.93-9.57,37.32-26.91,48.71-41.65a164,164,0,0,0,23.64-43.06,165.72,165.72,0,0,0,9.95-50C467.1,398.92,465.17,404.33,463.49,408.93Z"/><path class="k" d="M406.49,440.84a71.86,71.86,0,0,1-9.19,6.83,77.61,77.61,0,0,1-16.58,7.94,88.72,88.72,0,0,1-52.41,1.27,81.16,81.16,0,0,1-10.82-3.82,82.06,82.06,0,0,1-12.55-6.73c-.13-.07-.25-.15-.37-.23a45.62,45.62,0,0,1-7.76-6.21c-3-3.07-5.05-5.3-4.73-8.16s3-4.88,3.83-5.42c3.45-2.38,7.61-2.36,9.89-2.42.39,0,.72,0,1,0,11.53-1.09,30.17.25,32.26.4,13.44,1,20.16,1.44,25.27,1.34,7.25-.14,16.91-.81,28.26-.34h0l.67,0s5,.22,13.94,3c3.71,1.17,5,1.88,5.47,3C413.28,432.75,412.83,435.27,406.49,440.84Z"/><path class="l" d="M399.08,436.29c0,2-1.9,3.51-3.83,4.81a53.68,53.68,0,0,1-10.2,5.29,86.4,86.4,0,0,1-8.74,3,74.7,74.7,0,0,1-12.17,2.13,88.84,88.84,0,0,1-15-.15c-12.92-1.07-19.38-1.61-25.06-3a62.71,62.71,0,0,1-7.4-2.44,53.35,53.35,0,0,1-12-6.51,8.33,8.33,0,0,1-3.17-4.17,3.69,3.69,0,0,1,0-2.69c.73-1.53,2.83-2.19,5.29-2.75a45.73,45.73,0,0,1,10.94-1.42c14.11.68,21.16,1,23.65,1.19,10.28.72,15.42,1.08,22.77.89,9.56-.23,14.47-.44,14.47-.44,8.56-.37,12.8-.74,16.58,1.64C396.05,432.2,399,433.88,399.08,436.29Z"/><path class="m" d="M406.49,440.84a71.86,71.86,0,0,1-9.19,6.83,11.45,11.45,0,0,1,0-6.43c.75-2.42,1.93-3,1.77-4.82-.18-1.94-1.72-2.59-3.62-5.19a18.55,18.55,0,0,1-2.88-6l.67,0s5,.22,13.94,3c3.71,1.17,5,1.88,5.47,3C413.28,432.75,412.83,435.27,406.49,440.84Z"/><path class="m" d="M304.94,446.33c-.13-.07-.25-.15-.37-.23a45.62,45.62,0,0,1-7.76-6.21c-3-3.07-5.05-5.3-4.73-8.16s3-4.88,3.83-5.42c3.45-2.38,7.61-2.36,9.89-2.42.13,3.8-1.05,5.79-2.19,6.91-.9.87-1.79,1.23-2.17,2.34-.57,1.67.64,3.24,1.45,4.67A16.74,16.74,0,0,1,304.94,446.33Z"/><path class="n" d="M385.05,446.39a86.4,86.4,0,0,1-8.74,3,74.7,74.7,0,0,1-12.17,2.13,88.84,88.84,0,0,1-15-.15c-12.92-1.07-19.38-1.61-25.06-3a62.71,62.71,0,0,1-7.4-2.44,13.72,13.72,0,0,1,5.87-3.06c4.13-1,7.5.47,10.82,1.47,6.16,1.88,11.56,1.68,22.35,1.28,11-.41,14.07-2.37,22.59-.85A41.71,41.71,0,0,1,385.05,446.39Z"/><path class="o" d="M608.25,594.94a351.44,351.44,0,0,1-255.79,110h0A351.32,351.32,0,0,1,101.94,600.38c12.3-4.56,21.08-10.88,34.4-12.29a73.61,73.61,0,0,0,13.42-2.56,77.37,77.37,0,0,0,11.29-4.33c16.19-7.32,18-3.63,30.88-10.06,8.22-4.1,15.22-9.47,21.71-8.29a14.43,14.43,0,0,0,4.11.28c-.09.26-.17.52-.25.78-4.58,15.71.42,34.19,4.31,49.56a8.93,8.93,0,0,0,6.08,6.75c11.15,16.44,29.16,27.07,47.77,33.6,23.56,8.27,49.67,12.85,74.57,14a168,168,0,0,0,38.2-2.54c12.78-2.36,24.74-7,36.58-12.28,22.09-9.79,43.94-20.93,61.8-37.48a109.52,109.52,0,0,0,23.29-30.11c2.8-5.5,6-11.81,6.32-18.08a18.58,18.58,0,0,0-.5-5.07c.84.44,1.85.93,3.19,1.49,6.21,2.62,8.56,2.3,16.06,4.41,9.43,2.67,7.83,3.79,15.76,5.89,10,2.63,12.77.93,19.3,4.47,4.11,2.22,4.07,3.47,8.47,6.35,7.4,4.84,14.38,5.79,18.59,6.59A39.75,39.75,0,0,1,608.25,594.94Z"/><path class="p" d="M516.42,567.31c-.29,6.27-3.52,12.58-6.32,18.08a109.52,109.52,0,0,1-23.29,30.11C469,632.05,447.1,643.19,425,653c-11.84,5.24-23.8,9.92-36.58,12.28a168,168,0,0,1-38.2,2.54c-24.9-1.13-51-5.71-74.57-14-18.61-6.53-36.62-17.16-47.77-33.6a8.93,8.93,0,0,1-6.08-6.75c-3.89-15.37-8.89-33.85-4.31-49.56.08-.26.16-.52.25-.78.27,0,.54-.06.83-.1a15.88,15.88,0,0,0,8.47-4.59c3-2.83,10.56-5.35,30.62-3.53-2.16.54-5.39,1.4-9.27,2.65-6.3,2-9.46,3-11.29,4.67-4.5,4-4,11.38-3.35,18.09.6,6.92,1.86,21.21,12.94,34.3,6.68,7.9,13.66,11.47,23.64,16.58,6.2,3.18,15.43,7.28,35.18,12.24,22.7,5.7,34.05,8.55,48.24,8.53,19.18,0,33.34-4.54,49.58-9.71,10-3.18,25.11-8.09,42.89-18.7,4-2.4,23.78-14.42,37.94-31.42,9.19-11,7.15-13.51,13.41-22.58.72-1,2.78-4,2.12-7.06a9.44,9.44,0,0,0-1.77-3.53,9.61,9.61,0,0,0-3.06-2.51,40.43,40.43,0,0,1,14.89,2.68,46.21,46.21,0,0,1,6.16,3.1A18.58,18.58,0,0,1,516.42,567.31Z"/><path class="q" d="M343.89,313.79c-.36-6.29-3.5-11.74-9.74-13.69-5.07-1.59-10.87-2-16.11-2.79-10.94-1.72-22-3.52-33.06-4.32-6.15-.45-13.05.66-18.17,4.13-5-1.7-11,0-12.46,6.53-2.31,10.14-3.33,25,1.89,34.46,4.52,8.18,13.56,11.89,22.33,13.42,18.69,3.27,41.55,5.23,55.39-10.65C340.41,333.49,344.46,323.72,343.89,313.79Z"/><path class="q" d="M457.62,317.47c-.55-5.74-3.32-10.94-8.56-13.72-4.78-2.52-10.53-2.53-15.79-2.95-11.4-.92-22.87-1.38-34.32-1.23-4.35.05-8.8.37-12.45,2.85A9.73,9.73,0,0,0,379,305c-8.91,8-7.15,19.93-3.19,29.9s9.75,17.41,20.8,19.79c18,3.87,43.6,8.23,55.48-10C457,337.26,458.47,326.31,457.62,317.47Z"/><path class="r" d="M475.69,303.43c-1.74,0-4.4-.1-7.61-.35-8.73-.65-12.62-1.9-21-3.31a233.73,233.73,0,0,0-31.36-3.14c-3.5-.11-6.74,0-7.83,0-8.38.15-12.67.21-18.1,1.05a61.74,61.74,0,0,0-13.45,3.16c-4.06,1.52-5.7,2.72-9.63,3.29-1.31.19-1.31.09-9.07-.14-7.13-.21-8.88-.17-11.65-1a24.56,24.56,0,0,1-5.36-2.44c-9.35-5.49-27.84-7.63-32.35-8.15-8.32-1-15.63-.84-30.23-.59-8.87.15-15.22.48-17.62.62-8.27.49-15.41,1.19-21.09,1.85l.09,10.5a8.22,8.22,0,0,1,2.85.44,9.07,9.07,0,0,1,3.85,2.78,13.76,13.76,0,0,1,2.92,6.62c.85,4.81,2.12,9.53,3,14.34.15.83,2.18,11.2,9.58,17.85,6.62,5.94,15,6.69,27.13,7.76a114.88,114.88,0,0,0,14.86.17c11.53-.35,17.29-.53,21-2.18,12.58-5.66,18-22.13,18.41-23.48,2.27-7.23,2.33-14.45,7.35-17a13.7,13.7,0,0,1,5.94-1.3,14.79,14.79,0,0,1,6.53,1.94c5.43,3.28,4.19,10.26,9.24,23.71,3.43,9.15,6.44,12.38,7.81,13.73a29.82,29.82,0,0,0,9.48,6c3.73,1.61,9.45,3.51,31.77,3.77,12.47.14,18.1-.37,23.64-3.3a24.41,24.41,0,0,0,6.88-5.17c2.94-3.19,4.17-6.34,5.92-10.62a56.1,56.1,0,0,0,3.49-11.54c.69-3.73.57-5.39,1.95-8.2a12.63,12.63,0,0,1,5.17-5.53,17.17,17.17,0,0,1,3.65-1.35,21.87,21.87,0,0,1,3.91-.68ZM338.34,323.48c-1.29,5.24-2.52,10.26-6.29,15.88a26,26,0,0,1-6.88,7.64c-2.21,1.55-5.34,3.09-15.71,4.08a115.29,115.29,0,0,1-25.23-.17c-10.64-1.34-14.4-3.4-16-4.33a27.61,27.61,0,0,1-8.16-7.39c-2.63-3.68-3.49-7-4.67-11.63-.86-3.42-2.62-11.73-.76-20.13a13.18,13.18,0,0,1,2.83-6.31c3.44-4,12-5.07,12-5.07a159.76,159.76,0,0,1,19.37-1.15c5.58.09,11.68.4,18.51,1.07a202.37,202.37,0,0,1,20.47,3.82c2.64.62,6.51,1.58,9.09,4.92a13.5,13.5,0,0,1,2.38,5.78C339.68,312,340.27,315.59,338.34,323.48Zm116.54,12.84c-1.62,5.36-2.82,9.34-6.47,13.06s-8,5.19-11.14,6.2c-1.9.61-4.57,1.28-22.14.93-9.12-.19-12.29-.44-16.36-1.45a34.64,34.64,0,0,1-9.2-3.24c-10.38-5.83-13.36-18.3-14.53-23.23-1.84-7.69-3.78-15.81.65-21.68,3.46-4.58,9.71-5.32,22.23-6.8,8.85-1,16.57-.59,32,.31a72.56,72.56,0,0,1,15.62,3c6.26,1.89,8.26,3.42,9.54,5.22.56.79,1.73,2.7,1.81,10.18C457,323.79,457,329.24,454.88,336.32Z"/></svg>